TITLE ""
FILE "Disc5Track14.mp3" MP3
  TRACK 01 AUDIO
    TITLE "Disc5Track14_01"
    INDEX 01 00:00:00
  TRACK 02 AUDIO
    TITLE "Disc5Track14_02"
    INDEX 01 00:01:00
  TRACK 03 AUDIO
    TITLE "Disc5Track14_03"
    INDEX 01 00:02:13
  TRACK 04 AUDIO
    TITLE "Disc5Track14_04"
    INDEX 01 00:03:26
  TRACK 05 AUDIO
    TITLE "Disc5Track14_05"
    INDEX 01 00:05:37
  TRACK 06 AUDIO
    TITLE "Disc5Track14_06"
    INDEX 01 00:05:70
  TRACK 07 AUDIO
    TITLE "Disc5Track14_07"
    INDEX 01 00:07:16
  TRACK 08 AUDIO
    TITLE "Disc5Track14_08"
    INDEX 01 00:08:27
  TRACK 09 AUDIO
    TITLE "Disc5Track14_09"
    INDEX 01 00:09:46
  TRACK 10 AUDIO
    TITLE "Disc5Track14_10"
    INDEX 01 00:13:58
  TRACK 11 AUDIO
    TITLE "Disc5Track14_11"
    INDEX 01 00:14:16
  TRACK 12 AUDIO
    TITLE "Disc5Track14_12"
    INDEX 01 00:15:37
  TRACK 13 AUDIO
    TITLE "Disc5Track14_13"
    INDEX 01 00:17:42
  TRACK 14 AUDIO
    TITLE "Disc5Track14_14"
    INDEX 01 00:18:63
  TRACK 15 AUDIO
    TITLE "Disc5Track14_15"
    INDEX 01 00:20:70
  TRACK 16 AUDIO
    TITLE "Disc5Track14_16"
    INDEX 01 00:21:28
  TRACK 17 AUDIO
    TITLE "Disc5Track14_17"
    INDEX 01 00:22:63
  TRACK 18 AUDIO
    TITLE "Disc5Track14_18"
    INDEX 01 00:23:49
  TRACK 19 AUDIO
    TITLE "Disc5Track14_19"
    INDEX 01 00:25:12
  TRACK 20 AUDIO
    TITLE "Disc5Track14_20"
    INDEX 01 00:25:46
  TRACK 21 AUDIO
    TITLE "Disc5Track14_21"
    INDEX 01 00:26:53
  TRACK 22 AUDIO
    TITLE "Disc5Track14_22"
    INDEX 01 00:27:58
  TRACK 23 AUDIO
    TITLE "Disc5Track14_23"
    INDEX 01 00:28:67
  TRACK 24 AUDIO
    TITLE "Disc5Track14_24"
    INDEX 01 00:29:34
  TRACK 25 AUDIO
    TITLE "Disc5Track14_25"
    INDEX 01 00:30:45
  TRACK 26 AUDIO
    TITLE "Disc5Track14_26"
    INDEX 01 00:31:72
  TRACK 27 AUDIO
    TITLE "Disc5Track14_27"
    INDEX 01 00:33:10
  TRACK 28 AUDIO
    TITLE "Disc5Track14_28"
    INDEX 01 00:36:55
  TRACK 29 AUDIO
    TITLE "Disc5Track14_29"
    INDEX 01 00:37:13
  TRACK 30 AUDIO
    TITLE "Disc5Track14_30"
    INDEX 01 00:38:25
  TRACK 31 AUDIO
    TITLE "Disc5Track14_31"
    INDEX 01 00:39:32
  TRACK 32 AUDIO
    TITLE "Disc5Track14_32"
    INDEX 01 00:40:41
  TRACK 33 AUDIO
    TITLE "Disc5Track14_33"
    INDEX 01 00:41:05
  TRACK 34 AUDIO
    TITLE "Disc5Track14_34"
    INDEX 01 00:42:19
  TRACK 35 AUDIO
    TITLE "Disc5Track14_35"
    INDEX 01 00:43:28
  TRACK 36 AUDIO
    TITLE "Disc5Track14_36"
    INDEX 01 00:44:37
  TRACK 37 AUDIO
    TITLE "Disc5Track14_37"
    INDEX 01 00:48:27
  TRACK 38 AUDIO
    TITLE "Disc5Track14_38"
    INDEX 01 00:48:62
  TRACK 39 AUDIO
    TITLE "Disc5Track14_39"
    INDEX 01 00:49:71
  TRACK 40 AUDIO
    TITLE "Disc5Track14_40"
    INDEX 01 00:50:67
  TRACK 41 AUDIO
    TITLE "Disc5Track14_41"
    INDEX 01 00:52:01
  TRACK 42 AUDIO
    TITLE "Disc5Track14_42"
    INDEX 01 00:55:60
